<mxfile host="app.diagrams.net" modified="2024-09-06T16:51:38.885Z" agent="Mozilla/5.0 (Windows NT 10.0; Win64; x64) AppleWebKit/537.36 (KHTML, like Gecko) Chrome/128.0.0.0 Safari/537.36" etag="y9YyD1XT5YyeAlGb9Pfd" version="24.7.1" type="device">
  <diagram id="C5RBs43oDa-KdzZeNtuy" name="Page-1">
    <mxGraphModel dx="3561" dy="1626" grid="1" gridSize="10" guides="1" tooltips="1" connect="1" arrows="1" fold="1" page="1" pageScale="1" pageWidth="827" pageHeight="1169" math="0" shadow="0">
      <root>
        <mxCell id="WIyWlLk6GJQsqaUBKTNV-0" />
        <mxCell id="WIyWlLk6GJQsqaUBKTNV-1" parent="WIyWlLk6GJQsqaUBKTNV-0" />
        <mxCell id="zkfFHV4jXpPFQw0GAbJ--0" value="Entity" style="swimlane;fontStyle=2;align=center;verticalAlign=top;childLayout=stackLayout;horizontal=1;startSize=26;horizontalStack=0;resizeParent=1;resizeLast=0;collapsible=1;marginBottom=0;rounded=0;shadow=0;strokeWidth=1;" parent="WIyWlLk6GJQsqaUBKTNV-1" vertex="1">
          <mxGeometry x="-258.5" y="40" width="175" height="230" as="geometry">
            <mxRectangle x="230" y="140" width="160" height="26" as="alternateBounds" />
          </mxGeometry>
        </mxCell>
        <mxCell id="QsNowWu6URbOXfnw5Iu5-7" value="+ rb : RigidBody" style="text;html=1;align=left;verticalAlign=middle;resizable=0;points=[];autosize=1;strokeColor=none;fillColor=none;" vertex="1" parent="zkfFHV4jXpPFQw0GAbJ--0">
          <mxGeometry y="26" width="175" height="30" as="geometry" />
        </mxCell>
        <mxCell id="QsNowWu6URbOXfnw5Iu5-8" value="+ animator : Animator" style="text;html=1;align=left;verticalAlign=middle;resizable=0;points=[];autosize=1;strokeColor=none;fillColor=none;" vertex="1" parent="zkfFHV4jXpPFQw0GAbJ--0">
          <mxGeometry y="56" width="175" height="30" as="geometry" />
        </mxCell>
        <mxCell id="QsNowWu6URbOXfnw5Iu5-38" value="# statemachine : Statemachine" style="text;html=1;align=left;verticalAlign=middle;resizable=0;points=[];autosize=1;strokeColor=none;fillColor=none;" vertex="1" parent="zkfFHV4jXpPFQw0GAbJ--0">
          <mxGeometry y="86" width="175" height="30" as="geometry" />
        </mxCell>
        <mxCell id="zkfFHV4jXpPFQw0GAbJ--4" value="" style="line;html=1;strokeWidth=1;align=left;verticalAlign=middle;spacingTop=-1;spacingLeft=3;spacingRight=3;rotatable=0;labelPosition=right;points=[];portConstraint=eastwest;" parent="zkfFHV4jXpPFQw0GAbJ--0" vertex="1">
          <mxGeometry y="116" width="175" height="24" as="geometry" />
        </mxCell>
        <mxCell id="QsNowWu6URbOXfnw5Iu5-43" value="# Awake(): virtual void" style="text;html=1;align=left;verticalAlign=middle;resizable=0;points=[];autosize=1;strokeColor=none;fillColor=none;" vertex="1" parent="zkfFHV4jXpPFQw0GAbJ--0">
          <mxGeometry y="140" width="175" height="30" as="geometry" />
        </mxCell>
        <mxCell id="QsNowWu6URbOXfnw5Iu5-42" value="# Start(): virtual void" style="text;html=1;align=left;verticalAlign=middle;resizable=0;points=[];autosize=1;strokeColor=none;fillColor=none;" vertex="1" parent="zkfFHV4jXpPFQw0GAbJ--0">
          <mxGeometry y="170" width="175" height="30" as="geometry" />
        </mxCell>
        <mxCell id="QsNowWu6URbOXfnw5Iu5-44" value="# Update(): virtual void" style="text;html=1;align=left;verticalAlign=middle;resizable=0;points=[];autosize=1;strokeColor=none;fillColor=none;" vertex="1" parent="zkfFHV4jXpPFQw0GAbJ--0">
          <mxGeometry y="200" width="175" height="30" as="geometry" />
        </mxCell>
        <mxCell id="zkfFHV4jXpPFQw0GAbJ--6" value="Enemy" style="swimlane;fontStyle=0;align=center;verticalAlign=top;childLayout=stackLayout;horizontal=1;startSize=26;horizontalStack=0;resizeParent=1;resizeLast=0;collapsible=1;marginBottom=0;rounded=0;shadow=0;strokeWidth=1;" parent="WIyWlLk6GJQsqaUBKTNV-1" vertex="1">
          <mxGeometry x="-413" y="550" width="160" height="160" as="geometry">
            <mxRectangle x="130" y="380" width="160" height="26" as="alternateBounds" />
          </mxGeometry>
        </mxCell>
        <mxCell id="zkfFHV4jXpPFQw0GAbJ--9" value="" style="line;html=1;strokeWidth=1;align=left;verticalAlign=middle;spacingTop=-1;spacingLeft=3;spacingRight=3;rotatable=0;labelPosition=right;points=[];portConstraint=eastwest;" parent="zkfFHV4jXpPFQw0GAbJ--6" vertex="1">
          <mxGeometry y="26" width="160" height="24" as="geometry" />
        </mxCell>
        <mxCell id="QsNowWu6URbOXfnw5Iu5-72" value="#Awake() : override void" style="text;html=1;align=left;verticalAlign=middle;resizable=0;points=[];autosize=1;strokeColor=none;fillColor=none;" vertex="1" parent="zkfFHV4jXpPFQw0GAbJ--6">
          <mxGeometry y="50" width="160" height="30" as="geometry" />
        </mxCell>
        <mxCell id="QsNowWu6URbOXfnw5Iu5-73" value="#Start() : override void" style="text;html=1;align=left;verticalAlign=middle;resizable=0;points=[];autosize=1;strokeColor=none;fillColor=none;" vertex="1" parent="zkfFHV4jXpPFQw0GAbJ--6">
          <mxGeometry y="80" width="160" height="30" as="geometry" />
        </mxCell>
        <mxCell id="QsNowWu6URbOXfnw5Iu5-74" value="#Update() : override void" style="text;html=1;align=left;verticalAlign=middle;resizable=0;points=[];autosize=1;strokeColor=none;fillColor=none;" vertex="1" parent="zkfFHV4jXpPFQw0GAbJ--6">
          <mxGeometry y="110" width="160" height="30" as="geometry" />
        </mxCell>
        <mxCell id="zkfFHV4jXpPFQw0GAbJ--12" value="" style="endArrow=block;endSize=10;endFill=0;shadow=0;strokeWidth=1;rounded=0;curved=0;edgeStyle=elbowEdgeStyle;elbow=vertical;" parent="WIyWlLk6GJQsqaUBKTNV-1" source="zkfFHV4jXpPFQw0GAbJ--6" target="zkfFHV4jXpPFQw0GAbJ--0" edge="1">
          <mxGeometry width="160" relative="1" as="geometry">
            <mxPoint x="-228.5" y="113" as="sourcePoint" />
            <mxPoint x="-228.5" y="113" as="targetPoint" />
          </mxGeometry>
        </mxCell>
        <mxCell id="zkfFHV4jXpPFQw0GAbJ--13" value="Player" style="swimlane;fontStyle=0;align=center;verticalAlign=top;childLayout=stackLayout;horizontal=1;startSize=26;horizontalStack=0;resizeParent=1;resizeLast=0;collapsible=1;marginBottom=0;rounded=0;shadow=0;strokeWidth=1;" parent="WIyWlLk6GJQsqaUBKTNV-1" vertex="1">
          <mxGeometry x="-123.5" y="550" width="170" height="198" as="geometry">
            <mxRectangle x="340" y="380" width="170" height="26" as="alternateBounds" />
          </mxGeometry>
        </mxCell>
        <mxCell id="QsNowWu6URbOXfnw5Iu5-40" value="+idleState:PlayerIdleState" style="text;html=1;align=left;verticalAlign=middle;resizable=0;points=[];autosize=1;strokeColor=none;fillColor=none;" vertex="1" parent="zkfFHV4jXpPFQw0GAbJ--13">
          <mxGeometry y="26" width="170" height="30" as="geometry" />
        </mxCell>
        <mxCell id="QsNowWu6URbOXfnw5Iu5-41" value="+moveState:PlayerMoveState" style="text;html=1;align=left;verticalAlign=middle;resizable=0;points=[];autosize=1;strokeColor=none;fillColor=none;" vertex="1" parent="zkfFHV4jXpPFQw0GAbJ--13">
          <mxGeometry y="56" width="170" height="30" as="geometry" />
        </mxCell>
        <mxCell id="zkfFHV4jXpPFQw0GAbJ--15" value="" style="line;html=1;strokeWidth=1;align=left;verticalAlign=middle;spacingTop=-1;spacingLeft=3;spacingRight=3;rotatable=0;labelPosition=right;points=[];portConstraint=eastwest;" parent="zkfFHV4jXpPFQw0GAbJ--13" vertex="1">
          <mxGeometry y="86" width="170" height="22" as="geometry" />
        </mxCell>
        <mxCell id="QsNowWu6URbOXfnw5Iu5-45" value="# Awake():override void" style="text;html=1;align=left;verticalAlign=middle;resizable=0;points=[];autosize=1;strokeColor=none;fillColor=none;" vertex="1" parent="zkfFHV4jXpPFQw0GAbJ--13">
          <mxGeometry y="108" width="170" height="30" as="geometry" />
        </mxCell>
        <mxCell id="QsNowWu6URbOXfnw5Iu5-46" value="# Start():override void" style="text;html=1;align=left;verticalAlign=middle;resizable=0;points=[];autosize=1;strokeColor=none;fillColor=none;" vertex="1" parent="zkfFHV4jXpPFQw0GAbJ--13">
          <mxGeometry y="138" width="170" height="30" as="geometry" />
        </mxCell>
        <mxCell id="QsNowWu6URbOXfnw5Iu5-47" value="# Update():override void" style="text;html=1;align=left;verticalAlign=middle;resizable=0;points=[];autosize=1;strokeColor=none;fillColor=none;" vertex="1" parent="zkfFHV4jXpPFQw0GAbJ--13">
          <mxGeometry y="168" width="170" height="30" as="geometry" />
        </mxCell>
        <mxCell id="zkfFHV4jXpPFQw0GAbJ--16" value="" style="endArrow=block;endSize=10;endFill=0;shadow=0;strokeWidth=1;rounded=0;curved=0;edgeStyle=elbowEdgeStyle;elbow=vertical;" parent="WIyWlLk6GJQsqaUBKTNV-1" source="zkfFHV4jXpPFQw0GAbJ--13" target="zkfFHV4jXpPFQw0GAbJ--0" edge="1">
          <mxGeometry width="160" relative="1" as="geometry">
            <mxPoint x="-218.5" y="283" as="sourcePoint" />
            <mxPoint x="-118.5" y="181" as="targetPoint" />
          </mxGeometry>
        </mxCell>
        <mxCell id="QsNowWu6URbOXfnw5Iu5-9" value="&lt;&lt;Abstract&gt;&gt;&#xa;State" style="swimlane;fontStyle=0;align=center;verticalAlign=top;childLayout=stackLayout;horizontal=1;startSize=40;horizontalStack=0;resizeParent=1;resizeLast=0;collapsible=1;marginBottom=0;rounded=0;shadow=0;strokeWidth=1;" vertex="1" parent="WIyWlLk6GJQsqaUBKTNV-1">
          <mxGeometry x="980" y="30" width="460" height="370" as="geometry">
            <mxRectangle x="980" y="30" width="170" height="26" as="alternateBounds" />
          </mxGeometry>
        </mxCell>
        <mxCell id="QsNowWu6URbOXfnw5Iu5-39" value="# entity: Entity" style="text;html=1;align=left;verticalAlign=middle;resizable=0;points=[];autosize=1;strokeColor=none;fillColor=none;" vertex="1" parent="QsNowWu6URbOXfnw5Iu5-9">
          <mxGeometry y="40" width="460" height="30" as="geometry" />
        </mxCell>
        <mxCell id="QsNowWu6URbOXfnw5Iu5-27" value="# rb : Rigidbody" style="text;html=1;align=left;verticalAlign=middle;resizable=0;points=[];autosize=1;strokeColor=none;fillColor=none;" vertex="1" parent="QsNowWu6URbOXfnw5Iu5-9">
          <mxGeometry y="70" width="460" height="30" as="geometry" />
        </mxCell>
        <mxCell id="QsNowWu6URbOXfnw5Iu5-28" value="# animator: Animator" style="text;html=1;align=left;verticalAlign=middle;resizable=0;points=[];autosize=1;strokeColor=none;fillColor=none;" vertex="1" parent="QsNowWu6URbOXfnw5Iu5-9">
          <mxGeometry y="100" width="460" height="30" as="geometry" />
        </mxCell>
        <mxCell id="QsNowWu6URbOXfnw5Iu5-29" value="# animationBoolName : string" style="text;html=1;align=left;verticalAlign=middle;resizable=0;points=[];autosize=1;strokeColor=none;fillColor=none;" vertex="1" parent="QsNowWu6URbOXfnw5Iu5-9">
          <mxGeometry y="130" width="460" height="30" as="geometry" />
        </mxCell>
        <mxCell id="QsNowWu6URbOXfnw5Iu5-30" value="# statemachine : Statemachine" style="text;html=1;align=left;verticalAlign=middle;resizable=0;points=[];autosize=1;strokeColor=none;fillColor=none;" vertex="1" parent="QsNowWu6URbOXfnw5Iu5-9">
          <mxGeometry y="160" width="460" height="30" as="geometry" />
        </mxCell>
        <mxCell id="QsNowWu6URbOXfnw5Iu5-10" value="" style="line;html=1;strokeWidth=1;align=left;verticalAlign=middle;spacingTop=-1;spacingLeft=3;spacingRight=3;rotatable=0;labelPosition=right;points=[];portConstraint=eastwest;" vertex="1" parent="QsNowWu6URbOXfnw5Iu5-9">
          <mxGeometry y="190" width="460" height="30" as="geometry" />
        </mxCell>
        <mxCell id="QsNowWu6URbOXfnw5Iu5-37" value="+ State (entity : Entity,&amp;nbsp;&lt;span style=&quot;text-align: center;&quot;&gt;stateMachine : Statemachine&amp;nbsp;&lt;/span&gt;, animationBoolName : string)" style="text;html=1;align=left;verticalAlign=middle;resizable=0;points=[];autosize=1;strokeColor=none;fillColor=none;" vertex="1" parent="QsNowWu6URbOXfnw5Iu5-9">
          <mxGeometry y="220" width="460" height="30" as="geometry" />
        </mxCell>
        <mxCell id="QsNowWu6URbOXfnw5Iu5-31" value="+ Enter(): virtual void" style="text;html=1;align=left;verticalAlign=middle;resizable=0;points=[];autosize=1;strokeColor=none;fillColor=none;" vertex="1" parent="QsNowWu6URbOXfnw5Iu5-9">
          <mxGeometry y="250" width="460" height="30" as="geometry" />
        </mxCell>
        <mxCell id="QsNowWu6URbOXfnw5Iu5-32" value="+ Update(): virtual void" style="text;html=1;align=left;verticalAlign=middle;resizable=0;points=[];autosize=1;strokeColor=none;fillColor=none;" vertex="1" parent="QsNowWu6URbOXfnw5Iu5-9">
          <mxGeometry y="280" width="460" height="30" as="geometry" />
        </mxCell>
        <mxCell id="QsNowWu6URbOXfnw5Iu5-33" value="+ Exit(): virtual void" style="text;html=1;align=left;verticalAlign=middle;resizable=0;points=[];autosize=1;strokeColor=none;fillColor=none;" vertex="1" parent="QsNowWu6URbOXfnw5Iu5-9">
          <mxGeometry y="310" width="460" height="30" as="geometry" />
        </mxCell>
        <mxCell id="QsNowWu6URbOXfnw5Iu5-11" value="Statemachine" style="swimlane;fontStyle=0;align=center;verticalAlign=top;childLayout=stackLayout;horizontal=1;startSize=26;horizontalStack=0;resizeParent=1;resizeLast=0;collapsible=1;marginBottom=0;rounded=0;shadow=0;strokeWidth=1;" vertex="1" parent="WIyWlLk6GJQsqaUBKTNV-1">
          <mxGeometry x="610" y="66" width="165" height="170" as="geometry">
            <mxRectangle x="340" y="380" width="170" height="26" as="alternateBounds" />
          </mxGeometry>
        </mxCell>
        <mxCell id="QsNowWu6URbOXfnw5Iu5-22" value="+ currentState: State" style="text;html=1;align=left;verticalAlign=middle;resizable=0;points=[];autosize=1;strokeColor=none;fillColor=none;" vertex="1" parent="QsNowWu6URbOXfnw5Iu5-11">
          <mxGeometry y="26" width="165" height="30" as="geometry" />
        </mxCell>
        <mxCell id="QsNowWu6URbOXfnw5Iu5-12" value="" style="line;html=1;strokeWidth=1;align=left;verticalAlign=middle;spacingTop=-1;spacingLeft=3;spacingRight=3;rotatable=0;labelPosition=right;points=[];portConstraint=eastwest;" vertex="1" parent="QsNowWu6URbOXfnw5Iu5-11">
          <mxGeometry y="56" width="165" height="14" as="geometry" />
        </mxCell>
        <mxCell id="QsNowWu6URbOXfnw5Iu5-19" value="+ Initialize(State): void" style="text;html=1;align=left;verticalAlign=middle;resizable=0;points=[];autosize=1;strokeColor=none;fillColor=none;" vertex="1" parent="QsNowWu6URbOXfnw5Iu5-11">
          <mxGeometry y="70" width="165" height="30" as="geometry" />
        </mxCell>
        <mxCell id="QsNowWu6URbOXfnw5Iu5-21" value="+ ChangeState(State): void" style="text;html=1;align=left;verticalAlign=middle;resizable=0;points=[];autosize=1;strokeColor=none;fillColor=none;" vertex="1" parent="QsNowWu6URbOXfnw5Iu5-11">
          <mxGeometry y="100" width="165" height="30" as="geometry" />
        </mxCell>
        <mxCell id="QsNowWu6URbOXfnw5Iu5-24" style="edgeStyle=orthogonalEdgeStyle;rounded=0;orthogonalLoop=1;jettySize=auto;html=1;entryX=-0.01;entryY=0.58;entryDx=0;entryDy=0;entryPerimeter=0;endArrow=none;endFill=0;" edge="1" parent="WIyWlLk6GJQsqaUBKTNV-1" source="zkfFHV4jXpPFQw0GAbJ--0" target="QsNowWu6URbOXfnw5Iu5-19">
          <mxGeometry relative="1" as="geometry" />
        </mxCell>
        <mxCell id="QsNowWu6URbOXfnw5Iu5-26" value="1" style="edgeLabel;html=1;align=center;verticalAlign=middle;resizable=0;points=[];" vertex="1" connectable="0" parent="QsNowWu6URbOXfnw5Iu5-24">
          <mxGeometry x="0.737" y="-1" relative="1" as="geometry">
            <mxPoint as="offset" />
          </mxGeometry>
        </mxCell>
        <mxCell id="QsNowWu6URbOXfnw5Iu5-34" style="edgeStyle=orthogonalEdgeStyle;rounded=0;orthogonalLoop=1;jettySize=auto;html=1;entryX=1.004;entryY=0.527;entryDx=0;entryDy=0;entryPerimeter=0;endArrow=none;endFill=0;" edge="1" parent="WIyWlLk6GJQsqaUBKTNV-1" source="QsNowWu6URbOXfnw5Iu5-28" target="QsNowWu6URbOXfnw5Iu5-19">
          <mxGeometry relative="1" as="geometry" />
        </mxCell>
        <mxCell id="QsNowWu6URbOXfnw5Iu5-35" value="1" style="edgeLabel;html=1;align=center;verticalAlign=middle;resizable=0;points=[];" vertex="1" connectable="0" parent="QsNowWu6URbOXfnw5Iu5-34">
          <mxGeometry x="0.7423" y="-4" relative="1" as="geometry">
            <mxPoint as="offset" />
          </mxGeometry>
        </mxCell>
        <mxCell id="QsNowWu6URbOXfnw5Iu5-53" style="edgeStyle=orthogonalEdgeStyle;rounded=0;orthogonalLoop=1;jettySize=auto;html=1;entryX=0.5;entryY=1;entryDx=0;entryDy=0;endArrow=block;endFill=0;" edge="1" parent="WIyWlLk6GJQsqaUBKTNV-1" source="QsNowWu6URbOXfnw5Iu5-49" target="QsNowWu6URbOXfnw5Iu5-9">
          <mxGeometry relative="1" as="geometry" />
        </mxCell>
        <mxCell id="QsNowWu6URbOXfnw5Iu5-49" value="PlayerState" style="swimlane;fontStyle=0;align=center;verticalAlign=top;childLayout=stackLayout;horizontal=1;startSize=26;horizontalStack=0;resizeParent=1;resizeLast=0;collapsible=1;marginBottom=0;rounded=0;shadow=0;strokeWidth=1;" vertex="1" parent="WIyWlLk6GJQsqaUBKTNV-1">
          <mxGeometry x="320" y="568" width="560" height="210" as="geometry">
            <mxRectangle x="130" y="380" width="160" height="26" as="alternateBounds" />
          </mxGeometry>
        </mxCell>
        <mxCell id="QsNowWu6URbOXfnw5Iu5-55" value="# player : Player" style="text;html=1;align=left;verticalAlign=middle;resizable=0;points=[];autosize=1;strokeColor=none;fillColor=none;" vertex="1" parent="QsNowWu6URbOXfnw5Iu5-49">
          <mxGeometry y="26" width="560" height="30" as="geometry" />
        </mxCell>
        <mxCell id="QsNowWu6URbOXfnw5Iu5-50" value="" style="line;html=1;strokeWidth=1;align=left;verticalAlign=middle;spacingTop=-1;spacingLeft=3;spacingRight=3;rotatable=0;labelPosition=right;points=[];portConstraint=eastwest;" vertex="1" parent="QsNowWu6URbOXfnw5Iu5-49">
          <mxGeometry y="56" width="560" height="24" as="geometry" />
        </mxCell>
        <mxCell id="QsNowWu6URbOXfnw5Iu5-54" value="+ PlayerState(entity : Entity, statemachine : Statemachine, animationboolName : string, player : Player)" style="text;html=1;align=left;verticalAlign=middle;resizable=0;points=[];autosize=1;strokeColor=none;fillColor=none;" vertex="1" parent="QsNowWu6URbOXfnw5Iu5-49">
          <mxGeometry y="80" width="560" height="30" as="geometry" />
        </mxCell>
        <mxCell id="QsNowWu6URbOXfnw5Iu5-56" value="+ Enter() : override void" style="text;html=1;align=left;verticalAlign=middle;resizable=0;points=[];autosize=1;strokeColor=none;fillColor=none;" vertex="1" parent="QsNowWu6URbOXfnw5Iu5-49">
          <mxGeometry y="110" width="560" height="30" as="geometry" />
        </mxCell>
        <mxCell id="QsNowWu6URbOXfnw5Iu5-57" value="+ Update() : override void" style="text;html=1;align=left;verticalAlign=middle;resizable=0;points=[];autosize=1;strokeColor=none;fillColor=none;" vertex="1" parent="QsNowWu6URbOXfnw5Iu5-49">
          <mxGeometry y="140" width="560" height="30" as="geometry" />
        </mxCell>
        <mxCell id="QsNowWu6URbOXfnw5Iu5-58" value="+ Exit() : override void" style="text;html=1;align=left;verticalAlign=middle;resizable=0;points=[];autosize=1;strokeColor=none;fillColor=none;" vertex="1" parent="QsNowWu6URbOXfnw5Iu5-49">
          <mxGeometry y="170" width="560" height="30" as="geometry" />
        </mxCell>
        <mxCell id="QsNowWu6URbOXfnw5Iu5-67" style="edgeStyle=orthogonalEdgeStyle;rounded=0;orthogonalLoop=1;jettySize=auto;html=1;exitX=0.5;exitY=0;exitDx=0;exitDy=0;endArrow=block;endFill=0;" edge="1" parent="WIyWlLk6GJQsqaUBKTNV-1" source="QsNowWu6URbOXfnw5Iu5-59">
          <mxGeometry relative="1" as="geometry">
            <mxPoint x="1210" y="400" as="targetPoint" />
          </mxGeometry>
        </mxCell>
        <mxCell id="QsNowWu6URbOXfnw5Iu5-59" value="EnemyState" style="swimlane;fontStyle=0;align=center;verticalAlign=top;childLayout=stackLayout;horizontal=1;startSize=26;horizontalStack=0;resizeParent=1;resizeLast=0;collapsible=1;marginBottom=0;rounded=0;shadow=0;strokeWidth=1;" vertex="1" parent="WIyWlLk6GJQsqaUBKTNV-1">
          <mxGeometry x="1765" y="510" width="600" height="230" as="geometry">
            <mxRectangle x="130" y="380" width="160" height="26" as="alternateBounds" />
          </mxGeometry>
        </mxCell>
        <mxCell id="QsNowWu6URbOXfnw5Iu5-60" value="# enemyBase : Enemy" style="text;html=1;align=left;verticalAlign=middle;resizable=0;points=[];autosize=1;strokeColor=none;fillColor=none;" vertex="1" parent="QsNowWu6URbOXfnw5Iu5-59">
          <mxGeometry y="26" width="600" height="30" as="geometry" />
        </mxCell>
        <mxCell id="QsNowWu6URbOXfnw5Iu5-61" value="" style="line;html=1;strokeWidth=1;align=left;verticalAlign=middle;spacingTop=-1;spacingLeft=3;spacingRight=3;rotatable=0;labelPosition=right;points=[];portConstraint=eastwest;" vertex="1" parent="QsNowWu6URbOXfnw5Iu5-59">
          <mxGeometry y="56" width="600" height="24" as="geometry" />
        </mxCell>
        <mxCell id="QsNowWu6URbOXfnw5Iu5-62" value="+ PlayerState(entity : Entity, statemachine : Statemachine, animationboolName : string, enemyBase&amp;nbsp;: Enemy)" style="text;html=1;align=left;verticalAlign=middle;resizable=0;points=[];autosize=1;strokeColor=none;fillColor=none;" vertex="1" parent="QsNowWu6URbOXfnw5Iu5-59">
          <mxGeometry y="80" width="600" height="30" as="geometry" />
        </mxCell>
        <mxCell id="QsNowWu6URbOXfnw5Iu5-63" value="+ Enter() : override void" style="text;html=1;align=left;verticalAlign=middle;resizable=0;points=[];autosize=1;strokeColor=none;fillColor=none;" vertex="1" parent="QsNowWu6URbOXfnw5Iu5-59">
          <mxGeometry y="110" width="600" height="30" as="geometry" />
        </mxCell>
        <mxCell id="QsNowWu6URbOXfnw5Iu5-64" value="+ Update() : override void" style="text;html=1;align=left;verticalAlign=middle;resizable=0;points=[];autosize=1;strokeColor=none;fillColor=none;" vertex="1" parent="QsNowWu6URbOXfnw5Iu5-59">
          <mxGeometry y="140" width="600" height="30" as="geometry" />
        </mxCell>
        <mxCell id="QsNowWu6URbOXfnw5Iu5-65" value="+ Exit() : override void" style="text;html=1;align=left;verticalAlign=middle;resizable=0;points=[];autosize=1;strokeColor=none;fillColor=none;" vertex="1" parent="QsNowWu6URbOXfnw5Iu5-59">
          <mxGeometry y="170" width="600" height="30" as="geometry" />
        </mxCell>
        <mxCell id="QsNowWu6URbOXfnw5Iu5-69" value="//All the things that are related to all the player states" style="text;html=1;align=center;verticalAlign=middle;resizable=0;points=[];autosize=1;strokeColor=none;fillColor=none;" vertex="1" parent="WIyWlLk6GJQsqaUBKTNV-1">
          <mxGeometry x="300" y="538" width="300" height="30" as="geometry" />
        </mxCell>
        <mxCell id="QsNowWu6URbOXfnw5Iu5-70" value="//All the things that are related to all the enemy states" style="text;html=1;align=center;verticalAlign=middle;resizable=0;points=[];autosize=1;strokeColor=none;fillColor=none;" vertex="1" parent="WIyWlLk6GJQsqaUBKTNV-1">
          <mxGeometry x="1750" y="480" width="310" height="30" as="geometry" />
        </mxCell>
        <mxCell id="QsNowWu6URbOXfnw5Iu5-82" style="edgeStyle=orthogonalEdgeStyle;rounded=0;orthogonalLoop=1;jettySize=auto;html=1;entryX=0.5;entryY=1;entryDx=0;entryDy=0;endArrow=block;endFill=0;" edge="1" parent="WIyWlLk6GJQsqaUBKTNV-1" source="QsNowWu6URbOXfnw5Iu5-75" target="QsNowWu6URbOXfnw5Iu5-49">
          <mxGeometry relative="1" as="geometry" />
        </mxCell>
        <mxCell id="QsNowWu6URbOXfnw5Iu5-75" value="PlayerIdleState" style="swimlane;fontStyle=0;align=center;verticalAlign=top;childLayout=stackLayout;horizontal=1;startSize=26;horizontalStack=0;resizeParent=1;resizeLast=0;collapsible=1;marginBottom=0;rounded=0;shadow=0;strokeWidth=1;" vertex="1" parent="WIyWlLk6GJQsqaUBKTNV-1">
          <mxGeometry x="-30" y="910" width="590" height="210" as="geometry">
            <mxRectangle x="130" y="380" width="160" height="26" as="alternateBounds" />
          </mxGeometry>
        </mxCell>
        <mxCell id="QsNowWu6URbOXfnw5Iu5-76" value="# player : Player" style="text;html=1;align=left;verticalAlign=middle;resizable=0;points=[];autosize=1;strokeColor=none;fillColor=none;" vertex="1" parent="QsNowWu6URbOXfnw5Iu5-75">
          <mxGeometry y="26" width="590" height="30" as="geometry" />
        </mxCell>
        <mxCell id="QsNowWu6URbOXfnw5Iu5-77" value="" style="line;html=1;strokeWidth=1;align=left;verticalAlign=middle;spacingTop=-1;spacingLeft=3;spacingRight=3;rotatable=0;labelPosition=right;points=[];portConstraint=eastwest;" vertex="1" parent="QsNowWu6URbOXfnw5Iu5-75">
          <mxGeometry y="56" width="590" height="24" as="geometry" />
        </mxCell>
        <mxCell id="QsNowWu6URbOXfnw5Iu5-78" value="+&amp;nbsp;&lt;span style=&quot;text-align: center;&quot;&gt;PlayerIdleState&lt;/span&gt;(entity : Entity, statemachine : Statemachine, animationboolName : string, player : Player)" style="text;html=1;align=left;verticalAlign=middle;resizable=0;points=[];autosize=1;strokeColor=none;fillColor=none;" vertex="1" parent="QsNowWu6URbOXfnw5Iu5-75">
          <mxGeometry y="80" width="590" height="30" as="geometry" />
        </mxCell>
        <mxCell id="QsNowWu6URbOXfnw5Iu5-79" value="+ Enter() : override void" style="text;html=1;align=left;verticalAlign=middle;resizable=0;points=[];autosize=1;strokeColor=none;fillColor=none;" vertex="1" parent="QsNowWu6URbOXfnw5Iu5-75">
          <mxGeometry y="110" width="590" height="30" as="geometry" />
        </mxCell>
        <mxCell id="QsNowWu6URbOXfnw5Iu5-80" value="+ Update() : override void" style="text;html=1;align=left;verticalAlign=middle;resizable=0;points=[];autosize=1;strokeColor=none;fillColor=none;" vertex="1" parent="QsNowWu6URbOXfnw5Iu5-75">
          <mxGeometry y="140" width="590" height="30" as="geometry" />
        </mxCell>
        <mxCell id="QsNowWu6URbOXfnw5Iu5-81" value="+ Exit() : override void" style="text;html=1;align=left;verticalAlign=middle;resizable=0;points=[];autosize=1;strokeColor=none;fillColor=none;" vertex="1" parent="QsNowWu6URbOXfnw5Iu5-75">
          <mxGeometry y="170" width="590" height="30" as="geometry" />
        </mxCell>
        <mxCell id="QsNowWu6URbOXfnw5Iu5-83" value="//All the things happening while the player is in the idle state" style="text;html=1;align=center;verticalAlign=middle;resizable=0;points=[];autosize=1;strokeColor=none;fillColor=none;" vertex="1" parent="WIyWlLk6GJQsqaUBKTNV-1">
          <mxGeometry x="-70" y="868" width="340" height="30" as="geometry" />
        </mxCell>
        <mxCell id="QsNowWu6URbOXfnw5Iu5-91" style="edgeStyle=orthogonalEdgeStyle;rounded=0;orthogonalLoop=1;jettySize=auto;html=1;endArrow=block;endFill=0;" edge="1" parent="WIyWlLk6GJQsqaUBKTNV-1" source="QsNowWu6URbOXfnw5Iu5-84">
          <mxGeometry relative="1" as="geometry">
            <mxPoint x="600" y="780" as="targetPoint" />
          </mxGeometry>
        </mxCell>
        <mxCell id="QsNowWu6URbOXfnw5Iu5-84" value="PlayerMoveState" style="swimlane;fontStyle=0;align=center;verticalAlign=top;childLayout=stackLayout;horizontal=1;startSize=26;horizontalStack=0;resizeParent=1;resizeLast=0;collapsible=1;marginBottom=0;rounded=0;shadow=0;strokeWidth=1;" vertex="1" parent="WIyWlLk6GJQsqaUBKTNV-1">
          <mxGeometry x="580" y="910" width="600" height="210" as="geometry">
            <mxRectangle x="130" y="380" width="160" height="26" as="alternateBounds" />
          </mxGeometry>
        </mxCell>
        <mxCell id="QsNowWu6URbOXfnw5Iu5-85" value="# player : Player" style="text;html=1;align=left;verticalAlign=middle;resizable=0;points=[];autosize=1;strokeColor=none;fillColor=none;" vertex="1" parent="QsNowWu6URbOXfnw5Iu5-84">
          <mxGeometry y="26" width="600" height="30" as="geometry" />
        </mxCell>
        <mxCell id="QsNowWu6URbOXfnw5Iu5-86" value="" style="line;html=1;strokeWidth=1;align=left;verticalAlign=middle;spacingTop=-1;spacingLeft=3;spacingRight=3;rotatable=0;labelPosition=right;points=[];portConstraint=eastwest;" vertex="1" parent="QsNowWu6URbOXfnw5Iu5-84">
          <mxGeometry y="56" width="600" height="24" as="geometry" />
        </mxCell>
        <mxCell id="QsNowWu6URbOXfnw5Iu5-87" value="+&amp;nbsp;&lt;span style=&quot;text-align: center;&quot;&gt;PlayerMoveState&lt;/span&gt;(entity : Entity, statemachine : Statemachine, animationboolName : string, player : Player)" style="text;html=1;align=left;verticalAlign=middle;resizable=0;points=[];autosize=1;strokeColor=none;fillColor=none;" vertex="1" parent="QsNowWu6URbOXfnw5Iu5-84">
          <mxGeometry y="80" width="600" height="30" as="geometry" />
        </mxCell>
        <mxCell id="QsNowWu6URbOXfnw5Iu5-88" value="+ Enter() : override void" style="text;html=1;align=left;verticalAlign=middle;resizable=0;points=[];autosize=1;strokeColor=none;fillColor=none;" vertex="1" parent="QsNowWu6URbOXfnw5Iu5-84">
          <mxGeometry y="110" width="600" height="30" as="geometry" />
        </mxCell>
        <mxCell id="QsNowWu6URbOXfnw5Iu5-89" value="+ Update() : override void" style="text;html=1;align=left;verticalAlign=middle;resizable=0;points=[];autosize=1;strokeColor=none;fillColor=none;" vertex="1" parent="QsNowWu6URbOXfnw5Iu5-84">
          <mxGeometry y="140" width="600" height="30" as="geometry" />
        </mxCell>
        <mxCell id="QsNowWu6URbOXfnw5Iu5-90" value="+ Exit() : override void" style="text;html=1;align=left;verticalAlign=middle;resizable=0;points=[];autosize=1;strokeColor=none;fillColor=none;" vertex="1" parent="QsNowWu6URbOXfnw5Iu5-84">
          <mxGeometry y="170" width="600" height="30" as="geometry" />
        </mxCell>
        <mxCell id="QsNowWu6URbOXfnw5Iu5-97" style="edgeStyle=orthogonalEdgeStyle;rounded=0;orthogonalLoop=1;jettySize=auto;html=1;entryX=0.5;entryY=1;entryDx=0;entryDy=0;exitX=0.5;exitY=0;exitDx=0;exitDy=0;endArrow=block;endFill=0;" edge="1" parent="WIyWlLk6GJQsqaUBKTNV-1" source="QsNowWu6URbOXfnw5Iu5-92" target="zkfFHV4jXpPFQw0GAbJ--6">
          <mxGeometry relative="1" as="geometry" />
        </mxCell>
        <mxCell id="QsNowWu6URbOXfnw5Iu5-92" value="ArcherEnemy" style="swimlane;fontStyle=0;align=center;verticalAlign=top;childLayout=stackLayout;horizontal=1;startSize=26;horizontalStack=0;resizeParent=1;resizeLast=0;collapsible=1;marginBottom=0;rounded=0;shadow=0;strokeWidth=1;" vertex="1" parent="WIyWlLk6GJQsqaUBKTNV-1">
          <mxGeometry x="-740" y="780" width="220" height="280" as="geometry">
            <mxRectangle x="130" y="380" width="160" height="26" as="alternateBounds" />
          </mxGeometry>
        </mxCell>
        <mxCell id="QsNowWu6URbOXfnw5Iu5-98" value="+ idleState : ArcherEnemyIdleState" style="text;html=1;align=center;verticalAlign=middle;resizable=0;points=[];autosize=1;strokeColor=none;fillColor=none;" vertex="1" parent="QsNowWu6URbOXfnw5Iu5-92">
          <mxGeometry y="26" width="220" height="30" as="geometry" />
        </mxCell>
        <mxCell id="QsNowWu6URbOXfnw5Iu5-99" value="+ moveState : ArcherEnemyMoveState" style="text;html=1;align=center;verticalAlign=middle;resizable=0;points=[];autosize=1;strokeColor=none;fillColor=none;" vertex="1" parent="QsNowWu6URbOXfnw5Iu5-92">
          <mxGeometry y="56" width="220" height="30" as="geometry" />
        </mxCell>
        <mxCell id="QsNowWu6URbOXfnw5Iu5-93" value="" style="line;html=1;strokeWidth=1;align=left;verticalAlign=middle;spacingTop=-1;spacingLeft=3;spacingRight=3;rotatable=0;labelPosition=right;points=[];portConstraint=eastwest;" vertex="1" parent="QsNowWu6URbOXfnw5Iu5-92">
          <mxGeometry y="86" width="220" height="34" as="geometry" />
        </mxCell>
        <mxCell id="QsNowWu6URbOXfnw5Iu5-94" value="#Awake() : override void" style="text;html=1;align=left;verticalAlign=middle;resizable=0;points=[];autosize=1;strokeColor=none;fillColor=none;" vertex="1" parent="QsNowWu6URbOXfnw5Iu5-92">
          <mxGeometry y="120" width="220" height="30" as="geometry" />
        </mxCell>
        <mxCell id="QsNowWu6URbOXfnw5Iu5-95" value="#Start() : override void" style="text;html=1;align=left;verticalAlign=middle;resizable=0;points=[];autosize=1;strokeColor=none;fillColor=none;" vertex="1" parent="QsNowWu6URbOXfnw5Iu5-92">
          <mxGeometry y="150" width="220" height="30" as="geometry" />
        </mxCell>
        <mxCell id="QsNowWu6URbOXfnw5Iu5-96" value="#Update() : override void" style="text;html=1;align=left;verticalAlign=middle;resizable=0;points=[];autosize=1;strokeColor=none;fillColor=none;" vertex="1" parent="QsNowWu6URbOXfnw5Iu5-92">
          <mxGeometry y="180" width="220" height="30" as="geometry" />
        </mxCell>
        <mxCell id="QsNowWu6URbOXfnw5Iu5-107" style="edgeStyle=orthogonalEdgeStyle;rounded=0;orthogonalLoop=1;jettySize=auto;html=1;entryX=0.5;entryY=1;entryDx=0;entryDy=0;endArrow=block;endFill=0;" edge="1" parent="WIyWlLk6GJQsqaUBKTNV-1" source="QsNowWu6URbOXfnw5Iu5-100" target="QsNowWu6URbOXfnw5Iu5-59">
          <mxGeometry relative="1" as="geometry" />
        </mxCell>
        <mxCell id="QsNowWu6URbOXfnw5Iu5-100" value="ArcherEnemyState" style="swimlane;fontStyle=0;align=center;verticalAlign=top;childLayout=stackLayout;horizontal=1;startSize=26;horizontalStack=0;resizeParent=1;resizeLast=0;collapsible=1;marginBottom=0;rounded=0;shadow=0;strokeWidth=1;" vertex="1" parent="WIyWlLk6GJQsqaUBKTNV-1">
          <mxGeometry x="1680" y="870" width="770" height="230" as="geometry">
            <mxRectangle x="130" y="380" width="160" height="26" as="alternateBounds" />
          </mxGeometry>
        </mxCell>
        <mxCell id="QsNowWu6URbOXfnw5Iu5-101" value="# enemy : ArcherEnemy" style="text;html=1;align=left;verticalAlign=middle;resizable=0;points=[];autosize=1;strokeColor=none;fillColor=none;" vertex="1" parent="QsNowWu6URbOXfnw5Iu5-100">
          <mxGeometry y="26" width="770" height="30" as="geometry" />
        </mxCell>
        <mxCell id="QsNowWu6URbOXfnw5Iu5-102" value="" style="line;html=1;strokeWidth=1;align=left;verticalAlign=middle;spacingTop=-1;spacingLeft=3;spacingRight=3;rotatable=0;labelPosition=right;points=[];portConstraint=eastwest;" vertex="1" parent="QsNowWu6URbOXfnw5Iu5-100">
          <mxGeometry y="56" width="770" height="24" as="geometry" />
        </mxCell>
        <mxCell id="QsNowWu6URbOXfnw5Iu5-103" value="+&amp;nbsp;&lt;span style=&quot;text-align: center;&quot;&gt;ArcherEnemyState&lt;/span&gt;(entity : Entity, statemachine : Statemachine, animationboolName : string, enemyBase : Enemy, enemy : ArhcerEnemy)" style="text;html=1;align=left;verticalAlign=middle;resizable=0;points=[];autosize=1;strokeColor=none;fillColor=none;" vertex="1" parent="QsNowWu6URbOXfnw5Iu5-100">
          <mxGeometry y="80" width="770" height="30" as="geometry" />
        </mxCell>
        <mxCell id="QsNowWu6URbOXfnw5Iu5-104" value="+ Enter() : override void" style="text;html=1;align=left;verticalAlign=middle;resizable=0;points=[];autosize=1;strokeColor=none;fillColor=none;" vertex="1" parent="QsNowWu6URbOXfnw5Iu5-100">
          <mxGeometry y="110" width="770" height="30" as="geometry" />
        </mxCell>
        <mxCell id="QsNowWu6URbOXfnw5Iu5-105" value="+ Update() : override void" style="text;html=1;align=left;verticalAlign=middle;resizable=0;points=[];autosize=1;strokeColor=none;fillColor=none;" vertex="1" parent="QsNowWu6URbOXfnw5Iu5-100">
          <mxGeometry y="140" width="770" height="30" as="geometry" />
        </mxCell>
        <mxCell id="QsNowWu6URbOXfnw5Iu5-106" value="+ Exit() : override void" style="text;html=1;align=left;verticalAlign=middle;resizable=0;points=[];autosize=1;strokeColor=none;fillColor=none;" vertex="1" parent="QsNowWu6URbOXfnw5Iu5-100">
          <mxGeometry y="170" width="770" height="30" as="geometry" />
        </mxCell>
        <mxCell id="QsNowWu6URbOXfnw5Iu5-108" value="All the things related to all the archer states" style="text;html=1;align=center;verticalAlign=middle;resizable=0;points=[];autosize=1;strokeColor=none;fillColor=none;" vertex="1" parent="WIyWlLk6GJQsqaUBKTNV-1">
          <mxGeometry x="1710" y="830" width="250" height="30" as="geometry" />
        </mxCell>
        <mxCell id="QsNowWu6URbOXfnw5Iu5-116" style="edgeStyle=orthogonalEdgeStyle;rounded=0;orthogonalLoop=1;jettySize=auto;html=1;entryX=0.5;entryY=1;entryDx=0;entryDy=0;endArrow=block;endFill=0;" edge="1" parent="WIyWlLk6GJQsqaUBKTNV-1" source="QsNowWu6URbOXfnw5Iu5-109" target="QsNowWu6URbOXfnw5Iu5-100">
          <mxGeometry relative="1" as="geometry" />
        </mxCell>
        <mxCell id="QsNowWu6URbOXfnw5Iu5-109" value="ArcherEnemyIdleState" style="swimlane;fontStyle=0;align=center;verticalAlign=top;childLayout=stackLayout;horizontal=1;startSize=26;horizontalStack=0;resizeParent=1;resizeLast=0;collapsible=1;marginBottom=0;rounded=0;shadow=0;strokeWidth=1;" vertex="1" parent="WIyWlLk6GJQsqaUBKTNV-1">
          <mxGeometry x="1280" y="1260" width="780" height="210" as="geometry">
            <mxRectangle x="130" y="380" width="160" height="26" as="alternateBounds" />
          </mxGeometry>
        </mxCell>
        <mxCell id="QsNowWu6URbOXfnw5Iu5-111" value="" style="line;html=1;strokeWidth=1;align=left;verticalAlign=middle;spacingTop=-1;spacingLeft=3;spacingRight=3;rotatable=0;labelPosition=right;points=[];portConstraint=eastwest;" vertex="1" parent="QsNowWu6URbOXfnw5Iu5-109">
          <mxGeometry y="26" width="780" height="24" as="geometry" />
        </mxCell>
        <mxCell id="QsNowWu6URbOXfnw5Iu5-112" value="+&amp;nbsp;&lt;span style=&quot;text-align: center;&quot;&gt;ArcherEnemyIdleState&lt;/span&gt;(entity : Entity, statemachine : Statemachine, animationboolName : string, enemyBase : Enemy, enemy : ArhcerEnemy)" style="text;html=1;align=left;verticalAlign=middle;resizable=0;points=[];autosize=1;strokeColor=none;fillColor=none;" vertex="1" parent="QsNowWu6URbOXfnw5Iu5-109">
          <mxGeometry y="50" width="780" height="30" as="geometry" />
        </mxCell>
        <mxCell id="QsNowWu6URbOXfnw5Iu5-113" value="+ Enter() : override void" style="text;html=1;align=left;verticalAlign=middle;resizable=0;points=[];autosize=1;strokeColor=none;fillColor=none;" vertex="1" parent="QsNowWu6URbOXfnw5Iu5-109">
          <mxGeometry y="80" width="780" height="30" as="geometry" />
        </mxCell>
        <mxCell id="QsNowWu6URbOXfnw5Iu5-114" value="+ Update() : override void" style="text;html=1;align=left;verticalAlign=middle;resizable=0;points=[];autosize=1;strokeColor=none;fillColor=none;" vertex="1" parent="QsNowWu6URbOXfnw5Iu5-109">
          <mxGeometry y="110" width="780" height="30" as="geometry" />
        </mxCell>
        <mxCell id="QsNowWu6URbOXfnw5Iu5-115" value="+ Exit() : override void" style="text;html=1;align=left;verticalAlign=middle;resizable=0;points=[];autosize=1;strokeColor=none;fillColor=none;" vertex="1" parent="QsNowWu6URbOXfnw5Iu5-109">
          <mxGeometry y="140" width="780" height="30" as="geometry" />
        </mxCell>
        <mxCell id="QsNowWu6URbOXfnw5Iu5-123" style="edgeStyle=orthogonalEdgeStyle;rounded=0;orthogonalLoop=1;jettySize=auto;html=1;endArrow=block;endFill=0;" edge="1" parent="WIyWlLk6GJQsqaUBKTNV-1" source="QsNowWu6URbOXfnw5Iu5-117">
          <mxGeometry relative="1" as="geometry">
            <mxPoint x="2090" y="1100" as="targetPoint" />
          </mxGeometry>
        </mxCell>
        <mxCell id="QsNowWu6URbOXfnw5Iu5-117" value="ArcherEnemyMoveState" style="swimlane;fontStyle=0;align=center;verticalAlign=top;childLayout=stackLayout;horizontal=1;startSize=26;horizontalStack=0;resizeParent=1;resizeLast=0;collapsible=1;marginBottom=0;rounded=0;shadow=0;strokeWidth=1;" vertex="1" parent="WIyWlLk6GJQsqaUBKTNV-1">
          <mxGeometry x="2120" y="1260" width="790" height="210" as="geometry">
            <mxRectangle x="130" y="380" width="160" height="26" as="alternateBounds" />
          </mxGeometry>
        </mxCell>
        <mxCell id="QsNowWu6URbOXfnw5Iu5-118" value="" style="line;html=1;strokeWidth=1;align=left;verticalAlign=middle;spacingTop=-1;spacingLeft=3;spacingRight=3;rotatable=0;labelPosition=right;points=[];portConstraint=eastwest;" vertex="1" parent="QsNowWu6URbOXfnw5Iu5-117">
          <mxGeometry y="26" width="790" height="24" as="geometry" />
        </mxCell>
        <mxCell id="QsNowWu6URbOXfnw5Iu5-119" value="+&amp;nbsp;&lt;span style=&quot;text-align: center;&quot;&gt;ArcherEnemyMoveState&lt;/span&gt;(entity : Entity, statemachine : Statemachine, animationboolName : string, enemyBase : Enemy, enemy : ArhcerEnemy)" style="text;html=1;align=left;verticalAlign=middle;resizable=0;points=[];autosize=1;strokeColor=none;fillColor=none;" vertex="1" parent="QsNowWu6URbOXfnw5Iu5-117">
          <mxGeometry y="50" width="790" height="30" as="geometry" />
        </mxCell>
        <mxCell id="QsNowWu6URbOXfnw5Iu5-120" value="+ Enter() : override void" style="text;html=1;align=left;verticalAlign=middle;resizable=0;points=[];autosize=1;strokeColor=none;fillColor=none;" vertex="1" parent="QsNowWu6URbOXfnw5Iu5-117">
          <mxGeometry y="80" width="790" height="30" as="geometry" />
        </mxCell>
        <mxCell id="QsNowWu6URbOXfnw5Iu5-121" value="+ Update() : override void" style="text;html=1;align=left;verticalAlign=middle;resizable=0;points=[];autosize=1;strokeColor=none;fillColor=none;" vertex="1" parent="QsNowWu6URbOXfnw5Iu5-117">
          <mxGeometry y="110" width="790" height="30" as="geometry" />
        </mxCell>
        <mxCell id="QsNowWu6URbOXfnw5Iu5-122" value="+ Exit() : override void" style="text;html=1;align=left;verticalAlign=middle;resizable=0;points=[];autosize=1;strokeColor=none;fillColor=none;" vertex="1" parent="QsNowWu6URbOXfnw5Iu5-117">
          <mxGeometry y="140" width="790" height="30" as="geometry" />
        </mxCell>
      </root>
    </mxGraphModel>
  </diagram>
</mxfile>
